HIERARCHY
ROOT Hips
{
 OFFSET 0.000000 0.000000 0.000000
 CHANNELS 6 Xposition Yposition Zposition Yrotation Xrotation Zrotation
 JOINT Chest
 {
  OFFSET 0.000000 9.588913 -0.003946
  CHANNELS 3 Yrotation Xrotation Zrotation
  JOINT Chest2
  {
   OFFSET 0.000000 9.541882 0.008053
   CHANNELS 3 Yrotation Xrotation Zrotation
   JOINT Chest3
   {
    OFFSET 0.000000 9.501360 0.000000
    CHANNELS 3 Yrotation Xrotation Zrotation
    JOINT Chest4
    {
     OFFSET 0.000000 9.491660 0.000000
     CHANNELS 3 Yrotation Xrotation Zrotation
     JOINT Neck
     {
      OFFSET 0.000000 14.331917 0.000000
      CHANNELS 3 Yrotation Xrotation Zrotation
      JOINT Head
      {
       OFFSET 0.000000 8.884799 0.017034
       CHANNELS 3 Yrotation Xrotation Zrotation
       End Site
       {
        OFFSET 0.000000 16.896195 0.008993
       }
      }
     }
     JOINT RightCollar
     {
      OFFSET -2.923010 9.499495 0.000000
      CHANNELS 3 Yrotation Xrotation Zrotation
      JOINT RightShoulder
      {
       OFFSET -13.795216 0.000000 0.000000
       CHANNELS 3 Yrotation Xrotation Zrotation
       JOINT RightElbow
       {
        OFFSET -30.272209 0.000000 0.000000
        CHANNELS 3 Yrotation Xrotation Zrotation
        JOINT RightWrist
        {
         OFFSET -24.478199 0.000000 0.000000
         CHANNELS 3 Yrotation Xrotation Zrotation
         End Site
         {
          OFFSET -18.090752 0.000000 0.000000
         }
        }
       }
      }
     }
     JOINT LeftCollar
     {
      OFFSET 2.923010 9.499495 0.000000
      CHANNELS 3 Yrotation Xrotation Zrotation
      JOINT LeftShoulder
      {
       OFFSET 13.795216 0.000000 0.000000
       CHANNELS 3 Yrotation Xrotation Zrotation
       JOINT LeftElbow
       {
        OFFSET 30.272209 0.000000 0.000000
        CHANNELS 3 Yrotation Xrotation Zrotation
        JOINT LeftWrist
        {
         OFFSET 24.478199 0.000000 0.000000
         CHANNELS 3 Yrotation Xrotation Zrotation
         End Site
         {
          OFFSET 18.090752 0.000000 0.000000
         }
        }
       }
      }
     }
    }
   }
  }
 }
 JOINT RightHip
 {
  OFFSET -7.826875 0.019532 0.001973
  CHANNELS 3 Yrotation Xrotation Zrotation
  JOINT RightKnee
  {
   OFFSET 0.000000 -40.546152 -0.001885
   CHANNELS 3 Yrotation Xrotation Zrotation
   JOINT RightAnkle
   {
    OFFSET 0.000000 -39.417092 -0.003189
    CHANNELS 3 Yrotation Xrotation Zrotation
    JOINT RightToe
    {
     OFFSET 0.000000 -7.579396 17.243563
     CHANNELS 3 Yrotation Xrotation Zrotation
     End Site
     {
      OFFSET 0.000000 -1.500329 6.694466
     }
    }
   }
  }
 }
 JOINT LeftHip
 {
  OFFSET 7.826875 0.019532 0.001973
  CHANNELS 3 Yrotation Xrotation Zrotation
  JOINT LeftKnee
  {
   OFFSET 0.000000 -40.546152 -0.001885
   CHANNELS 3 Yrotation Xrotation Zrotation
   JOINT LeftAnkle
   {
    OFFSET 0.000000 -39.417092 -0.003189
    CHANNELS 3 Yrotation Xrotation Zrotation
    JOINT LeftToe
    {
     OFFSET 0.000000 -7.579396 17.243563
     CHANNELS 3 Yrotation Xrotation Zrotation
     End Site
     {
      OFFSET 0.000000 -1.500329 6.694466
     }
    }
   }
  }
 }
}
MOTION
Frames: 12
Frame Time: 0.008333
-16.403775 46.811336 -11.613192 5.887736 -25.406817 0.839311 10.450617 9.002739 3.480944 5.485071 5.357304 1.735713 6.889103 6.668520 2.252013 5.485071 5.357304 1.735713 2.238608 10.759710 -1.161348 2.644769 -14.333217 -1.749672 12.227057 -2.941694 -4.066567 24.357601 -40.802355 64.195260 50.832084 16.079660 24.028319 -3.423463 2.825470 -4.076455 -2.161143 -5.051911 -0.057305 -4.889166 -31.063381 -70.049447 -56.631819 -5.935517 -49.005479 1.557428 -1.417874 15.311185 31.662698 -64.557855 -14.945838 136.933809 66.452137 148.215749 -0.447705 -18.955611 0.727441 -0.958079 -0.387803 -0.412169 50.963391 -70.974687 -6.417544 129.491327 75.441202 158.822091 3.623385 -10.197411 -13.108584 0.735149 0.261208 0.325634
-16.407664 46.812332 -11.609000 5.905109 -25.403608 0.838477 10.432496 9.009963 3.469474 5.484504 5.358096 1.731996 6.888347 6.669569 2.247368 5.484504 5.358096 1.731996 2.245155 10.763082 -1.161669 2.651834 -14.329727 -1.751549 12.242126 -2.948222 -4.066381 24.344468 -40.785363 64.177160 50.870315 16.051517 24.051179 -3.429774 2.821330 -4.087584 -2.155641 -5.059736 -0.052645 -4.908922 -31.050981 -70.046187 -56.656590 -5.942113 -48.997949 1.557844 -1.411301 15.330480 31.658037 -64.557689 -14.957952 136.926028 66.450533 148.210491 -0.482822 -18.953161 0.718985 -0.926867 -0.387209 -0.398904 50.963529 -70.978379 -6.422427 129.539523 75.450063 158.875182 3.644235 -10.184298 -13.108150 0.714998 0.257316 0.316467
-16.410999 46.813573 -11.604466 5.926547 -25.404001 0.839523 10.411728 9.020553 3.454406 5.483958 5.359135 1.728767 6.887625 6.670919 2.243337 5.483958 5.359135 1.728767 2.251559 10.766670 -1.160222 2.658312 -14.326013 -1.751496 12.254930 -2.951701 -4.067289 24.326647 -40.774168 64.162532 50.908615 16.026663 24.074021 -3.437254 2.817602 -4.094342 -2.150774 -5.068171 -0.048781 -4.930293 -31.039607 -70.037040 -56.678319 -5.953007 -48.994213 1.561576 -1.403596 15.349146 31.652807 -64.551396 -14.972746 136.923777 66.447870 148.208322 -0.512473 -18.955392 0.713355 -0.899059 -0.385380 -0.387472 50.955683 -70.977708 -6.421890 129.596716 75.459430 158.934288 3.662896 -10.171172 -13.104481 0.695391 0.252692 0.306804
-16.414039 46.814885 -11.599942 5.948433 -25.405303 0.841848 10.392813 9.031382 3.438622 5.483923 5.360287 1.725919 6.887549 6.672402 2.239793 5.483923 5.360287 1.725919 2.254782 10.770885 -1.157334 2.660991 -14.321643 -1.749120 12.264058 -2.953755 -4.069056 24.302432 -40.764770 64.154429 50.945087 16.007401 24.094283 -3.442094 2.814456 -4.100427 -2.149349 -5.076658 -0.044199 -4.954440 -31.030572 -70.023356 -56.695057 -5.970522 -48.991123 1.567569 -1.397490 15.364809 31.649727 -64.542064 -14.990349 136.922401 66.445925 148.204536 -0.534702 -18.960926 0.709765 -0.877031 -0.381480 -0.377599 50.949394 -70.974100 -6.422290 129.653241 75.469788 158.992260 3.680498 -10.160940 -13.100514 0.677643 0.250145 0.298171
-16.417707 46.816049 -11.595752 5.964012 -25.404383 0.842387 10.380680 9.038763 3.428280 5.484748 5.361305 1.723301 6.888550 6.673710 2.236546 5.484748 5.361305 1.723301 2.254201 10.775328 -1.153482 2.659323 -14.317033 -1.744788 12.269170 -2.956855 -4.072802 24.275460 -40.753643 64.154764 50.979175 15.992643 24.107825 -3.444643 2.810274 -4.105021 -2.153135 -5.083501 -0.040059 -4.979169 -31.025522 -70.009699 -56.704830 -5.992320 -48.984886 1.575189 -1.391715 15.377023 31.643435 -64.536772 -14.998513 136.914358 66.446668 148.192847 -0.557204 -18.964596 0.706955 -0.856547 -0.376085 -0.368485 50.945411 -70.973574 -6.418788 129.706559 75.479346 159.048161 3.697290 -10.157151 -13.097789 0.659549 0.251481 0.289762
-16.422223 46.817078 -11.591761 5.972025 -25.401569 0.839814 10.375497 9.042988 3.423080 5.486454 5.362259 1.720787 6.890657 6.674930 2.233441 5.486454 5.362259 1.720787 2.250653 10.778839 -1.147026 2.653845 -14.313387 -1.736967 12.271631 -2.962281 -4.075716 24.249774 -40.740312 64.159111 51.013306 15.977639 24.113352 -3.448547 2.806180 -4.102742 -2.161120 -5.090366 -0.033767 -5.001389 -31.023315 -69.999613 -56.705824 -6.017249 -48.976344 1.583486 -1.384749 15.384948 31.632072 -64.537478 -14.994645 136.902172 66.450325 148.178839 -0.582702 -18.962458 0.702898 -0.833822 -0.371869 -0.359426 50.940441 -70.978038 -6.407016 129.758392 75.487089 159.102805 3.716106 -10.159240 -13.095443 0.639931 0.256169 0.280880
-16.426406 46.818263 -11.587408 5.980695 -25.401056 0.836984 10.370528 9.049056 3.416939 5.488265 5.363231 1.718518 6.892898 6.676170 2.230645 5.488265 5.363231 1.718518 2.245580 10.781582 -1.138261 2.646180 -14.310534 -1.726321 12.276321 -2.968857 -4.075360 24.225002 -40.725754 64.160318 51.047176 15.958374 24.115425 -3.455865 2.806617 -4.098648 -2.170498 -5.099146 -0.025277 -5.018850 -31.021930 -69.993693 -56.700819 -6.043005 -48.970821 1.593382 -1.377849 15.389837 31.617323 -64.536386 -14.989399 136.896302 66.454120 148.173112 -0.606299 -18.959499 0.696548 -0.809656 -0.369227 -0.350069 50.929785 -70.980006 -6.390767 129.815670 75.494504 159.163176 3.738305 -10.163433 -13.094522 0.621202 0.261353 0.272537
-16.429538 46.819472 -11.582943 5.995057 -25.401306 0.836033 10.360900 9.057465 3.408033 5.489726 5.363550 1.716282 6.894695 6.676595 2.227874 5.489726 5.363550 1.716282 2.240657 10.785043 -1.129815 2.638737 -14.306937 -1.716043 12.284248 -2.973970 -4.073471 24.202135 -40.711116 64.157913 51.076106 15.936576 24.115274 -3.463276 2.809882 -4.099535 -2.179749 -5.108206 -0.018071 -5.032072 -31.020188 -69.992115 -56.693817 -6.065813 -48.968970 1.604426 -1.372019 15.394740 31.603563 -64.531462 -14.991853 136.896150 66.455748 148.172692 -0.628021 -18.961774 0.689447 -0.785462 -0.365399 -0.340409 50.918975 -70.977974 -6.380805 129.883672 75.503088 159.233752 3.761316 -10.166935 -13.094187 0.604608 0.264869 0.264960
-16.431927 46.820477 -11.578717 6.009930 -25.399364 0.837557 10.348810 9.065948 3.396684 5.491428 5.362907 1.713589 6.896781 6.675823 2.224519 5.491428 5.362907 1.713589 2.236684 10.789694 -1.121703 2.632375 -14.302108 -1.706335 12.291821 -2.977694 -4.071710 24.178096 -40.697091 64.161474 51.100973 15.917949 24.111721 -3.465337 2.812410 -4.102746 -2.186823 -5.115719 -0.010849 -5.046926 -31.017332 -69.994397 -56.685887 -6.083982 -48.964351 1.610678 -1.365497 15.400595 31.596855 -64.526540 -15.003950 136.895199 66.455414 148.171177 -0.648223 -18.967269 0.682979 -0.762748 -0.360198 -0.331529 50.915908 -70.976200 -6.380116 129.959825 75.511609 159.310620 3.784629 -10.168626 -13.091843 0.589247 0.265761 0.256954
-16.433661 46.821508 -11.574200 6.021855 -25.398502 0.842218 10.338096 9.075461 3.383536 5.493660 5.362439 1.710773 6.899530 6.675270 2.221020 5.493660 5.362439 1.710773 2.232179 10.794525 -1.114017 2.625540 -14.297092 -1.696953 12.295963 -2.981836 -4.071155 24.147829 -40.684628 64.176744 51.124999 15.905760 24.106043 -3.462193 2.814311 -4.102762 -2.192568 -5.121626 -0.003313 -5.066332 -31.014801 -69.998003 -56.678759 -6.097280 -48.954871 1.609511 -1.354919 15.407857 31.597235 -64.520918 -15.022493 136.892228 66.452331 148.168066 -0.666450 -18.970288 0.677435 -0.742516 -0.357737 -0.323827 50.914176 -70.973044 -6.377965 130.038898 75.518804 159.389524 3.805343 -10.169116 -13.088989 0.575983 0.263726 0.249331
-16.435079 46.822472 -11.569587 6.033058 -25.397449 0.847217 10.329974 9.084432 3.371433 5.496837 5.362397 1.708274 6.903469 6.675237 2.217940 5.496837 5.362397 1.708274 2.224497 10.798791 -1.107592 2.615597 -14.292659 -1.688160 12.294599 -2.985928 -4.072006 24.110127 -40.676222 64.198408 51.149565 15.898608 24.102053 -3.459602 2.816675 -4.097882 -2.203923 -5.127267 0.003645 -5.085035 -31.015017 -70.001594 -56.674132 -6.104650 -48.943719 1.604024 -1.342546 15.418082 31.600552 -64.516965 -15.042986 136.887510 66.447384 148.163904 -0.686851 -18.969838 0.671606 -0.722247 -0.358237 -0.315256 50.911936 -70.970614 -6.374175 130.115231 75.525581 159.465738 3.820643 -10.168518 -13.086595 0.563731 0.260214 0.242791
-16.436662 46.823185 -11.565287 6.045388 -25.393681 0.849198 10.322087 9.090709 3.362242 5.500672 5.362069 1.705860 6.908230 6.674845 2.214971 5.500672 5.362069 1.705860 2.214704 10.803293 -1.101743 2.603513 -14.287980 -1.679470 12.290151 -2.988284 -4.072253 24.068887 -40.671966 64.220354 51.174430 15.893057 24.101854 -3.460453 2.821664 -4.091939 -2.219726 -5.132494 0.010076 -5.103815 -31.015510 -70.004059 -56.674305 -6.109329 -48.928493 1.597832 -1.331938 15.429258 31.600895 -64.515997 -15.059496 136.882541 66.443933 148.160162 -0.710990 -18.970670 0.664162 -0.699384 -0.356844 -0.304635 50.909693 -70.972624 -6.371850 130.185677 75.532676 159.535813 3.833100 -10.165646 -13.083746 0.549849 0.256533 0.236494
